<svg width="139" height="28" viewBox="0 0 139 28" fill="none" xmlns="http://www.w3.org/2000/svg">
<path d="M8.79114 22.5293V5.59741H19.5577C21.0573 5.59741 22.1539 6.38757 22.592 7.82543C22.7068 8.21505 22.77 8.61804 22.7801 9.0241C22.807 10.075 22.7801 11.1258 22.7801 12.1793C22.7855 12.2213 22.7855 12.2637 22.7801 12.3057C22.5624 13.0474 22.7801 13.7005 23.1026 14.3751C23.2614 14.7714 23.34 15.1953 23.3337 15.6222C23.3633 16.7913 23.3579 17.9604 23.3337 19.116C23.3496 19.6933 23.2222 20.2654 22.9628 20.7813C22.7034 21.2972 22.3202 21.7408 21.8475 22.0724C21.4587 22.3614 20.9881 22.5195 20.5037 22.5239C16.6551 22.5239 12.8082 22.5239 8.96314 22.5239L8.79114 22.5293ZM16.0127 19.116C17.3565 19.116 18.7003 19.116 20.0441 19.116C20.3129 19.116 20.4096 19.0435 20.4069 18.772C20.4069 17.8287 20.4069 16.8907 20.4069 15.942C20.4069 15.6732 20.3048 15.6141 20.0602 15.6141C17.3888 15.6141 14.7164 15.6141 12.0431 15.6141C11.7744 15.6141 11.6803 15.684 11.683 15.9581C11.6955 16.8898 11.6955 17.8224 11.683 18.7559C11.683 19.0408 11.7797 19.1187 12.0566 19.116C13.3708 19.1107 14.6931 19.116 16.0127 19.116ZM15.7574 9.00798C14.513 9.00798 13.2687 9.00798 12.0243 9.00798C11.7797 9.00798 11.6749 9.07248 11.6776 9.33049C11.6884 10.1869 11.6884 11.0443 11.6776 11.9025C11.6776 12.1471 11.769 12.2197 12.0001 12.2197C14.5086 12.2197 17.0089 12.2197 19.5012 12.2197C19.77 12.2197 19.8291 12.1283 19.8237 11.8783C19.8103 11.0425 19.8076 10.2066 19.8237 9.3708C19.8237 9.10204 19.7431 9.0026 19.4609 9.00798C18.2273 9.01604 16.9937 9.00798 15.7574 9.00798Z" fill="#4FC6EC"/>
<path d="M84.783 12.8029H81.8858C81.8724 12.7787 81.8536 12.7625 81.8509 12.7437C81.8374 12.2277 81.9476 12.2304 81.3133 12.2304C79.561 12.2304 77.8195 12.2304 76.0591 12.2304C75.7903 12.2304 75.6775 12.311 75.6936 12.5959C75.7124 12.9603 75.7124 13.3254 75.6936 13.6898C75.6775 13.9585 75.7876 14.0365 76.0483 14.0365C77.8974 14.0365 79.7438 14.0365 81.5929 14.0365C83.0065 14.0365 83.9929 14.6949 84.4901 16.0253C84.636 16.4143 84.7168 16.8248 84.7293 17.2401C84.7652 18.1292 84.7446 19.0197 84.6675 19.9062C84.5838 20.53 84.3114 21.1133 83.8867 21.5778C83.462 22.0424 82.9055 22.3659 82.2916 22.5051C82.1542 22.5302 82.0147 22.5419 81.8751 22.54H75.9543C75.2577 22.5642 74.575 22.3415 74.0267 21.9112C73.4784 21.4809 73.0997 20.8707 72.9576 20.1884C72.8648 19.6673 72.8011 19.1416 72.7668 18.6134H75.6586C75.6753 18.6362 75.6897 18.6605 75.7016 18.686C75.7178 19.2397 75.6425 19.1913 76.2392 19.1913C77.9888 19.1913 79.733 19.1913 81.4907 19.1913C81.7783 19.1913 81.8724 19.1106 81.8536 18.8258C81.826 18.4679 81.826 18.1085 81.8536 17.7507C81.8804 17.4363 81.7461 17.3771 81.4639 17.3798C79.5825 17.3798 77.6851 17.3798 75.793 17.3798C75.3964 17.3873 75.0031 17.3057 74.6422 17.141C74.2812 16.9764 73.9618 16.7329 73.7074 16.4284C73.1882 15.8783 72.8831 15.1603 72.8474 14.4047C72.8012 13.4514 72.8182 12.4961 72.8985 11.5451C72.9787 10.9037 73.2594 10.304 73.7005 9.83156C74.1416 9.35909 74.7206 9.03794 75.3549 8.91389C75.4928 8.89283 75.6321 8.88383 75.7715 8.88702C77.7147 8.88702 79.6605 8.93271 81.6036 8.88702C83.3855 8.83327 84.4525 10.2738 84.6782 11.4913C84.7353 11.9264 84.7702 12.3642 84.783 12.8029Z" fill="white"/>
<path d="M32.2673 15.7108C32.2673 14.5095 32.2485 13.3081 32.2673 12.1068C32.2659 11.5737 32.3911 11.0479 32.6327 10.5727C32.8742 10.0974 33.2253 9.68642 33.6568 9.37347C34.0963 9.04106 34.6352 8.86681 35.1861 8.87895C37.1319 8.87895 39.0777 8.92195 41.0209 8.87895C42.749 8.83058 43.7622 10.1126 44.0525 11.2978C44.1286 11.6211 44.1674 11.952 44.168 12.2841C44.168 14.6009 44.168 16.9203 44.168 19.237C44.1822 19.793 44.0586 20.3438 43.8082 20.8404C43.5578 21.3371 43.1883 21.764 42.7329 22.0831C42.3217 22.3799 41.8263 22.5372 41.3192 22.532C39.3411 22.532 37.363 22.5051 35.3876 22.532C34.0143 22.5561 33.1354 21.8681 32.5952 20.7017C32.3964 20.242 32.2878 19.7484 32.2754 19.2477C32.2351 18.0732 32.2673 16.8934 32.2673 15.7108ZM35.1511 15.6705C35.1511 16.7321 35.1511 17.7937 35.1511 18.8553C35.1511 19.1053 35.2237 19.1886 35.4817 19.1859C37.3075 19.1751 39.1333 19.1751 40.959 19.1859C41.2278 19.1859 41.3004 19.0891 41.3004 18.8311C41.3004 16.7402 41.3004 14.6492 41.3004 12.5583C41.3004 12.3056 41.2251 12.2223 40.9698 12.225C39.1422 12.225 37.3173 12.225 35.4925 12.225C35.2076 12.225 35.1484 12.3271 35.1511 12.5825C35.1565 13.6118 35.1511 14.6412 35.1511 15.6705Z" fill="#4FC6EC"/>
<path d="M118.405 15.6867C118.405 14.4853 118.383 13.2839 118.405 12.0826C118.406 11.5387 118.54 11.0033 118.794 10.5228C119.049 10.0423 119.417 9.63115 119.867 9.32511C120.289 9.02559 120.796 8.86922 121.313 8.87897H127.145C128.642 8.87897 129.712 9.65837 130.136 11.1016C130.243 11.4593 130.3 11.8302 130.306 12.2035C130.322 14.5328 130.322 16.8719 130.306 19.2209C130.323 19.78 130.201 20.3347 129.95 20.8348C129.7 21.335 129.329 21.7649 128.87 22.0858C128.458 22.3822 127.962 22.5386 127.454 22.532C125.479 22.532 123.503 22.5051 121.525 22.532C120.155 22.5562 119.273 21.8708 118.735 20.7071C118.535 20.2365 118.426 19.7322 118.413 19.2209C118.373 18.0491 118.405 16.8692 118.405 15.6867ZM121.289 15.7055C121.289 16.7563 121.289 17.8072 121.289 18.858C121.289 19.1107 121.364 19.1886 121.622 19.1859C123.448 19.1752 125.274 19.1752 127.099 19.1859C127.382 19.1859 127.438 19.0865 127.438 18.8312C127.438 16.7474 127.438 14.6654 127.438 12.5852C127.438 12.303 127.355 12.2223 127.07 12.2223C125.265 12.2331 123.461 12.2331 121.657 12.2223C121.34 12.2223 121.281 12.3325 121.283 12.612C121.297 13.6441 121.289 14.6761 121.289 15.7055Z" fill="white"/>
<path d="M71.6138 22.5293C70.6409 22.5293 69.6976 22.5293 68.7542 22.5293C68.6628 22.5293 68.5553 22.4245 68.4855 22.3412C67.2312 20.7752 65.9842 19.2039 64.7443 17.6271C64.6962 17.5523 64.629 17.4917 64.5496 17.4516C64.4702 17.4114 64.3816 17.3932 64.2928 17.3987C63.7902 17.4148 63.2876 17.3987 62.7528 17.3987V22.5051H59.8798V4.43372H62.7394V14.0258C63.336 14.0258 63.9031 14.0258 64.4702 14.0258C64.5589 14.0258 64.661 13.9075 64.7389 13.8215C65.9932 12.2555 67.2393 10.6842 68.4774 9.10745C68.5264 9.03384 68.5939 8.97445 68.6732 8.93528C68.7525 8.89611 68.8407 8.87856 68.9289 8.88438C69.8185 8.88438 70.7081 8.88438 71.6165 8.88438C71.6165 9.22302 71.6165 9.53209 71.6165 9.83848C71.5989 9.93873 71.5533 10.0319 71.4848 10.1072C70.1088 11.8757 68.7354 13.6441 67.3459 15.4045C67.3034 15.4408 67.2692 15.486 67.2458 15.5368C67.2224 15.5876 67.2102 15.6428 67.2102 15.6988C67.2102 15.7547 67.2224 15.81 67.2458 15.8608C67.2692 15.9116 67.3034 15.9568 67.3459 15.9931C68.7381 17.7508 70.1177 19.5174 71.4848 21.293C71.5639 21.4034 71.6105 21.5338 71.6192 21.6693C71.6273 21.9434 71.6138 22.2122 71.6138 22.5293Z" fill="#4FC6EC"/>
<path d="M86.3741 4.42828H89.2283V14.0257C89.833 14.0257 90.4082 14.0257 90.9833 14.0257C91.0639 14.0257 91.1553 13.9128 91.2171 13.8349C92.4714 12.2582 93.7256 10.6787 94.9798 9.09664C95.026 9.02736 95.0894 8.97133 95.1639 8.93409C95.2384 8.89685 95.3213 8.8797 95.4044 8.88432C96.294 8.88432 97.1863 8.88432 98.092 8.88432C98.1162 9.45678 98.1431 9.95937 97.7265 10.4673C96.3827 12.1094 95.098 13.7999 93.7919 15.4743C93.7354 15.5469 93.6817 15.6275 93.6145 15.7216L95.356 17.955C96.2268 19.0703 97.1003 20.183 97.963 21.3037C98.0434 21.4225 98.0899 21.5609 98.0974 21.7042C98.1189 21.9729 98.0974 22.2417 98.0974 22.5293C97.1245 22.5293 96.1704 22.5293 95.219 22.5293C95.1357 22.5293 95.0416 22.4271 94.9798 22.3492C93.7256 20.7832 92.4794 19.2137 91.2413 17.6405C91.1897 17.5619 91.1184 17.4981 91.0344 17.4557C90.9505 17.4132 90.8569 17.3936 90.7629 17.3986C90.2711 17.4148 89.7793 17.3986 89.2444 17.3986V22.5051H86.3741V4.42828Z" fill="white"/>
<path d="M58.1919 8.89778V12.2304H57.8372C55.0878 12.2304 52.3383 12.2304 49.5862 12.2304C49.2906 12.2304 49.1992 12.311 49.2019 12.6094C49.2127 14.6788 49.2127 16.7492 49.2019 18.8204C49.2019 19.1268 49.3013 19.194 49.5916 19.194C52.341 19.194 55.0931 19.194 57.8425 19.194H58.2134V22.5293H57.8614C55.0582 22.5293 52.255 22.5078 49.4492 22.5293C48.0785 22.5293 47.197 21.8654 46.6568 20.699C46.4514 20.2415 46.3425 19.7465 46.3369 19.245C46.3047 16.8531 46.2939 14.4584 46.3369 12.0665C46.3262 11.4473 46.4955 10.8384 46.8243 10.3136C47.153 9.78879 47.627 9.37071 48.1887 9.1101C48.4781 8.9703 48.7945 8.8951 49.1159 8.88972C52.1018 8.88972 55.0904 8.88972 58.0764 8.88972C58.1032 8.87897 58.1355 8.88972 58.1919 8.89778Z" fill="#4FC6EC"/>
<path d="M110.012 19.1805V22.5105C109.936 22.5105 109.856 22.5293 109.772 22.5293C109.117 22.5293 108.461 22.4943 107.808 22.5293C106.131 22.6448 105.085 21.258 104.816 20.1454C104.738 19.8125 104.699 19.4715 104.701 19.1295C104.701 14.3545 104.701 9.57863 104.701 4.80187V4.41486H107.59V18.729C107.59 19.1805 107.59 19.1805 108.028 19.1805H110.012Z" fill="white"/>
<path d="M116.911 19.1805V22.5132C116.817 22.5132 116.725 22.5293 116.642 22.5293C116 22.5293 115.352 22.4917 114.709 22.5293C112.957 22.6529 111.81 21.0565 111.643 19.7799C111.61 19.5034 111.595 19.2251 111.597 18.9467C111.597 14.2255 111.597 9.50428 111.597 4.78306V4.41217H114.486V18.7344C114.486 19.1805 114.486 19.1805 114.93 19.1805H116.911Z" fill="white"/>
<path d="M25.4489 4.40411H28.3381V18.6941C28.3381 19.1805 28.3381 19.1805 28.838 19.1805H30.6763H30.7596V22.5293H30.0474C29.3612 22.5576 28.674 22.5495 27.9887 22.5051C26.8572 22.3761 25.8386 21.3414 25.5699 20.1319C25.4961 19.7983 25.4582 19.4577 25.457 19.116C25.457 14.3536 25.457 9.59118 25.457 4.82875L25.4489 4.40411Z" fill="#4FC6EC"/>
<path d="M0 2.83185H5.30532V4.4256H1.98076V24.381H5.29726V25.9936H0V2.83185Z" fill="white"/>
<path d="M137.019 4.44171H133.703V2.84528H139V25.9882H133.697V24.4079H137.019V4.44171Z" fill="white"/>
<path d="M99.5487 8.88434H102.398V22.5158H99.5487V8.88434Z" fill="white"/>
<path d="M71.9148 0.43994V0.958647H10.4816C10.2505 0.958647 10.0597 0.942522 9.90918 1.22741C9.85255 1.31343 9.77794 1.38614 9.69049 1.44054C9.60304 1.49493 9.50484 1.52972 9.40265 1.54249C9.30046 1.55526 9.19671 1.54572 9.09857 1.51453C9.00042 1.48333 8.9102 1.43122 8.83414 1.36179C8.75332 1.29539 8.68685 1.21324 8.63877 1.12034C8.59069 1.02745 8.56201 0.925742 8.55447 0.821414C8.54693 0.717085 8.56068 0.612313 8.5949 0.513467C8.62912 0.414622 8.68308 0.323769 8.75351 0.246433C8.82044 0.170589 8.90243 0.109517 8.99426 0.0671072C9.0861 0.0246979 9.18575 0.00188138 9.28689 0.000111511C9.38802 -0.00165836 9.48842 0.0176572 9.58168 0.0568274C9.67494 0.0959977 9.75902 0.154164 9.82855 0.22762C9.89604 0.305773 9.98131 0.366581 10.0772 0.404931C10.1731 0.443281 10.2767 0.458052 10.3795 0.448003H71.9148V0.43994Z" fill="white"/>
<path d="M72.834 27.4019V26.8939H128.467C128.575 26.9141 128.686 26.901 128.786 26.8564C128.886 26.8117 128.97 26.7376 129.026 26.644C129.092 26.5619 129.174 26.4947 129.267 26.4467C129.36 26.3987 129.462 26.3712 129.567 26.3658C129.672 26.3605 129.777 26.3775 129.874 26.4157C129.972 26.454 130.06 26.5125 130.134 26.5876C130.276 26.7349 130.356 26.932 130.356 27.1372C130.356 27.3423 130.276 27.5394 130.134 27.6868C130.06 27.761 129.971 27.8189 129.874 27.8566C129.776 27.8944 129.672 27.9111 129.567 27.9058C129.463 27.9005 129.361 27.8732 129.267 27.8257C129.174 27.7783 129.092 27.7117 129.026 27.6304C128.969 27.5435 128.888 27.4752 128.792 27.4337C128.697 27.3922 128.591 27.3793 128.489 27.3965H72.834V27.4019Z" fill="white"/>
<path d="M102.398 4.43634V7.7824H99.5514V4.43634H102.398Z" fill="white"/>
</svg>
